<svg width="30" height="30" viewBox="0 0 528 528" fill="none" xmlns="http://www.w3.org/2000/svg">
<rect width="528" height="528" fill="#FF4D1D"/>
<mask id="path-1-inside-1_13_21" fill="white">
<path d="M175.8 58.2107C168.602 51.2996 156.444 43.3844 146.031 44.4432C138.434 45.552 132.917 49.2035 128.34 55.4034C115.135 73.2902 117.324 107.013 120.604 127.893C124.51 152.757 133.966 175.072 148.113 195.845C152.463 202.234 157.79 209.035 162.596 215.17L162.889 215.543C165.911 219.401 169.499 222.794 172.512 226.66L172.596 226.768C174.46 229.158 180.169 236.48 179.641 239.039C179.55 239.48 179.193 240.067 178.93 240.429C177.58 242.293 175.497 243.839 173.757 245.342C169.563 248.969 165.089 252.369 161.143 256.258C158.088 259.268 155.584 262.796 152.928 266.148C151.297 268.206 149.505 270.142 147.98 272.284C145.572 275.665 135.052 293.155 135.478 296.486C136.668 297.355 143.055 294.207 144.856 293.717C161.482 289.208 178.826 286.65 195.972 285.15C195.972 285.15 225.553 281.477 254.456 281.212C283.359 280.947 301.476 283.861 301.476 283.861C325.122 285.462 349.168 287.591 371.931 294.529C373.885 295.125 376.765 297.13 378.66 296.816C379.773 294.583 370.216 278.177 368.618 275.659C358.947 260.434 345.796 249.636 332.506 238.268C328.306 234.677 348.356 210.756 351.811 206.112C359.331 196.104 366.339 185.721 372.805 175.003C373.746 173.439 376.527 169.33 376.571 167.708C375.839 166.2 373.735 165 372.299 164.007C365.493 158.638 358.336 154.378 353.087 147.296C352.332 146.276 351.422 145.272 350.651 144.255C345.041 138.339 342.066 131.614 337.977 124.818C341.965 127.637 343.277 130.188 346.644 133.522C360.198 146.953 375.486 156.995 392.254 165.901C396.745 168.286 402.216 169.763 406.993 171.501C460.314 186.394 462.168 144.6 423.439 120.314C398.707 104.805 367.21 94.8299 337.835 100.038C300.519 106.653 285.416 153.453 277.44 185.219C275.184 194.196 274.279 203.918 272.446 213C271.489 217.785 270.136 218.938 265.232 218.508C257.426 218.01 249.733 218.728 241.946 218.95C239.051 218.538 238.121 216.944 237.954 214.226C234.441 157.326 218.027 98.7561 175.8 58.2107Z"/>
</mask>
<path d="M175.8 58.2107C168.602 51.2996 156.444 43.3844 146.031 44.4432C138.434 45.552 132.917 49.2035 128.34 55.4034C115.135 73.2902 117.324 107.013 120.604 127.893C124.51 152.757 133.966 175.072 148.113 195.845C152.463 202.234 157.79 209.035 162.596 215.17L162.889 215.543C165.911 219.401 169.499 222.794 172.512 226.66L172.596 226.768C174.46 229.158 180.169 236.48 179.641 239.039C179.55 239.48 179.193 240.067 178.93 240.429C177.58 242.293 175.497 243.839 173.757 245.342C169.563 248.969 165.089 252.369 161.143 256.258C158.088 259.268 155.584 262.796 152.928 266.148C151.297 268.206 149.505 270.142 147.98 272.284C145.572 275.665 135.052 293.155 135.478 296.486C136.668 297.355 143.055 294.207 144.856 293.717C161.482 289.208 178.826 286.65 195.972 285.15C195.972 285.15 225.553 281.477 254.456 281.212C283.359 280.947 301.476 283.861 301.476 283.861C325.122 285.462 349.168 287.591 371.931 294.529C373.885 295.125 376.765 297.13 378.66 296.816C379.773 294.583 370.216 278.177 368.618 275.659C358.947 260.434 345.796 249.636 332.506 238.268C328.306 234.677 348.356 210.756 351.811 206.112C359.331 196.104 366.339 185.721 372.805 175.003C373.746 173.439 376.527 169.33 376.571 167.708C375.839 166.2 373.735 165 372.299 164.007C365.493 158.638 358.336 154.378 353.087 147.296C352.332 146.276 351.422 145.272 350.651 144.255C345.041 138.339 342.066 131.614 337.977 124.818C341.965 127.637 343.277 130.188 346.644 133.522C360.198 146.953 375.486 156.995 392.254 165.901C396.745 168.286 402.216 169.763 406.993 171.501C460.314 186.394 462.168 144.6 423.439 120.314C398.707 104.805 367.21 94.8299 337.835 100.038C300.519 106.653 285.416 153.453 277.44 185.219C275.184 194.196 274.279 203.918 272.446 213C271.489 217.785 270.136 218.938 265.232 218.508C257.426 218.01 249.733 218.728 241.946 218.95C239.051 218.538 238.121 216.944 237.954 214.226C234.441 157.326 218.027 98.7561 175.8 58.2107Z" fill="white"/>
<path d="M146.018 44.315C146.027 44.4005 146.036 44.486 146.044 44.5715C157.414 43.8825 167.618 50.8584 175.716 58.2976C184.702 66.9167 192.69 76.5432 199.602 86.891C224.599 124.392 235.076 169.675 237.872 214.231C237.948 215.371 238.142 216.579 238.875 217.517C239.608 218.463 240.802 218.872 241.935 219.029L241.948 219.03C249.712 218.806 257.473 218.087 265.228 218.583C266.947 218.701 268.881 218.876 270.368 217.766C271.799 216.594 272.146 214.702 272.518 213.014C274.374 203.782 275.223 194.37 277.506 185.236C286.451 151.39 299.291 108.212 337.843 100.086C367.629 94.9575 398.155 104.641 423.42 120.344C436.989 129.061 451.274 142.69 449.816 159.975C448.761 168.671 439.875 173.728 431.721 174.352C423.427 175.22 415.088 173.704 406.999 171.479C402.061 169.683 396.931 168.336 392.264 165.882C375.745 157.143 359.941 146.731 346.656 133.511C343.726 130.644 341.441 127.11 337.985 124.806L337.964 124.826C341.946 131.455 345.23 138.63 350.641 144.264C351.427 145.298 352.303 146.261 353.077 147.303C358.168 154.239 365.629 158.762 372.293 164.015C373.831 165.099 375.637 166.012 376.562 167.712C375.994 170.409 374.179 172.644 372.796 174.998C366.333 185.714 359.323 196.102 351.805 206.108C344.672 216.312 333.254 225.829 332.503 238.272C345.697 249.518 359.291 260.851 368.615 275.661C372.43 282.44 377.304 289.145 378.658 296.815C376.203 296.96 374.196 295.237 371.931 294.528C349.103 287.579 325.188 285.469 301.476 283.861C286.78 281.814 271.932 281.19 257.083 281.196C256.218 281.199 255.342 281.204 254.456 281.212C234.902 281.438 215.383 282.911 195.972 285.147C178.747 286.658 161.561 289.186 144.853 293.708C141.736 294.642 138.752 296.762 135.485 296.477C137.748 287.679 143.195 279.974 147.993 272.293C149.519 270.152 151.309 268.219 152.942 266.159C155.605 262.8 158.099 259.287 161.158 256.273C165.124 252.369 169.566 248.998 173.774 245.362C175.571 243.807 177.53 242.382 178.953 240.446C179.254 240.017 179.543 239.565 179.669 239.045C179.039 234.185 175.314 230.492 172.538 226.64C169.52 222.767 165.94 219.381 162.918 215.52C157.862 209.055 152.779 202.599 148.15 195.82C134.236 175.511 124.409 152.26 120.679 127.881C119.401 119.683 118.556 111.425 118.283 103.127C117.945 86.8137 118.823 69.1949 128.433 55.4724C132.546 49.6645 138.942 45.4397 146.05 44.5708C146.038 44.4858 146.025 44.4007 146.013 44.3157C138.846 45.1971 132.372 49.4879 128.246 55.3345C118.594 69.1618 117.755 86.8011 118.105 103.133C118.387 111.439 119.241 119.703 120.528 127.905C124.284 152.304 134.139 175.563 148.075 195.871C152.71 202.651 157.799 209.104 162.86 215.566C165.889 219.43 169.471 222.813 172.486 226.68C175.264 230.52 178.99 234.25 179.614 239.033C179.493 239.535 179.205 239.989 178.908 240.413C177.494 242.34 175.539 243.766 173.741 245.323C169.536 248.96 165.095 252.334 161.128 256.242C158.066 259.261 155.574 262.778 152.913 266.136C151.283 268.196 149.492 270.13 147.966 272.274C143.168 279.964 137.727 287.655 135.467 296.487C138.777 296.787 141.74 294.658 144.858 293.726C161.563 289.199 178.748 286.666 195.972 285.153C215.383 282.913 234.902 281.439 254.456 281.212C255.342 281.204 256.218 281.199 257.083 281.196C271.932 281.19 286.78 281.814 301.476 283.861C325.188 285.47 349.103 287.581 371.93 294.531C374.194 295.24 376.201 296.964 378.66 296.818C377.308 289.14 372.434 282.439 368.62 275.658C359.296 260.846 345.703 249.512 332.509 238.264C333.267 225.848 344.681 216.317 351.817 206.116C359.336 196.111 366.347 185.724 372.813 175.008C374.196 172.653 376.01 170.425 376.582 167.708C375.65 165.993 373.842 165.082 372.305 163.998C365.641 158.743 358.183 154.219 353.097 147.288C352.322 146.244 351.446 145.281 350.661 144.247C345.253 138.615 341.972 131.442 337.99 124.81L337.968 124.83C341.419 127.132 343.701 130.662 346.633 133.534C359.919 146.76 375.724 157.177 392.244 165.92C396.917 168.378 402.048 169.727 406.985 171.523C415.078 173.751 423.422 175.271 431.727 174.404C439.89 173.783 448.813 168.713 449.874 159.984C451.336 142.648 437.035 129.014 423.458 120.284C398.185 104.567 367.647 94.866 337.826 99.9897C299.184 108.131 286.338 151.355 277.374 185.203C275.085 194.351 274.233 203.764 272.374 212.985C272.007 214.667 271.646 216.537 270.276 217.649C268.863 218.711 266.952 218.555 265.239 218.433C257.467 217.933 249.701 218.65 241.944 218.87L241.957 218.871C240.842 218.716 239.696 218.316 239.002 217.417C238.303 216.526 238.108 215.349 238.035 214.221C235.255 169.645 224.796 124.327 199.787 86.7674C192.871 76.4037 184.878 66.76 175.883 58.1239C167.749 50.6548 157.546 43.6331 146.018 44.315ZM146.044 44.5715L146.018 44.315L146.05 44.5708L146.044 44.5715Z" fill="white" mask="url(#path-1-inside-1_13_21)"/>
<path d="M256.273 315.629C259.522 315.453 262.763 316.095 265.699 317.498C270.958 320.009 275.076 326.335 276.932 331.649C276.326 333.108 275.581 334.426 274.836 335.818C277.13 339.471 279.074 343.81 281.415 347.296C286.788 355.296 291.186 366.26 298.712 372.288C306.81 378.775 314.364 382.335 324.859 380.644C331.23 379.615 336.556 377.272 342.648 375.322L360.115 369.563C365.668 367.73 381.73 363.133 384.138 357.804C386.639 352.269 385.131 336.318 385.69 329.481C385.855 327.447 385.391 325.456 386.185 323.412C386.997 322.775 386.554 322.958 387.549 322.811C387.907 322.94 388.235 323.061 388.523 323.322C392.434 326.861 395 356.265 395.121 362.666C395.443 380.12 391.839 399.08 382.003 413.78C378.855 418.488 374.942 422.773 371.018 426.839C365.068 433 357.369 437.744 349.754 441.593C346.201 443.39 342.679 445.347 338.977 446.819C335.02 448.394 330.902 449.534 326.811 450.704C304.626 457.049 281.776 458.928 258.795 459.31C237.395 459.488 216.043 457.286 195.129 452.746C177.551 448.871 160.383 441.261 146.317 429.698C143.725 427.323 141.372 424.436 138.997 421.876C115.375 396.422 116.507 358.799 124.009 327.158C124.332 325.791 125.686 322.311 127.506 322.87C129.784 325.717 127.823 350.73 129.458 355.762C132.106 363.907 147.048 367.369 154.616 369.826L171.37 375.348C175.96 376.833 180.861 378.785 185.476 379.973C191.817 381.603 200.337 381.561 206.161 378.334C210.831 375.745 216.337 372.113 219.771 367.977C223.57 363.404 226.272 357.724 229.426 352.694C232.947 346.989 236.342 341.137 239.563 335.261C238.519 334.057 238.018 333.363 237.128 332.064C238.243 328.532 240.531 325.023 242.836 322.146C246.271 317.856 250.909 316.113 256.273 315.629ZM232.357 405.749C234.245 408.712 234.498 410.583 235.197 413.974C241.315 412.092 251.893 407.915 257.129 404.545L259.125 405.688C262.956 408.201 274.403 412.458 278.969 413.742C279.739 410.591 280.32 408.797 281.32 405.744L280.995 405.592C278.061 404.257 262.507 399.897 261.638 397.461C261.035 395.77 260.855 384.779 261.613 383.263C262.608 381.27 265.299 379.672 267.019 378.269C270.066 375.786 277.262 369.787 276.032 365.299C275.565 363.592 274.05 362.166 272.541 361.341C268.535 359.152 257.934 359.395 253.257 359.751C249.516 360.011 237.487 359.498 237.991 366.902C238.274 371.058 245.236 376.426 248.137 379.172C254.512 383.918 252.937 384.653 252.901 392.374C252.896 393.558 253.03 397.102 252.105 398.234C248.008 401.055 236.711 404.347 232.357 405.749Z" fill="white" fill-opacity="0.988235"/>
</svg>
